<svg version="1.2" xmlns="http://www.w3.org/2000/svg" viewBox="0 0 222 199" width="222" height="199"><style>.a{fill:#067ac5}.b{fill:#035b8c}</style><path class="a" d="m67.3 122v43c0 9.2-3.8 17.5-9.8 23.5-6 6.1-14.4 9.8-23.6 9.8-18.4 0-33.3-14.9-33.3-33.3v-65.5c1-15.9 20.8-23.3 32.4-11.8l34.2 34.3z"/><path class="a" d="m221.1 34.9v58.2c-0.1-16.7-20.6-24.7-32.4-12.9l-23.8 23.9-6.9 6.8-3.6 3.6-18.7 18.7-0.1 0.1q-0.6 0.7-1.2 1.3c-6.3 6.3-14.7 9.3-23.2 9.3h-0.4c-8.6 0.2-17.1-2.9-23.6-9.3q-0.7-0.8-1.4-1.6l-18.6-18.5-34.2-34.3c-11.8-11.8-32.3-3.8-32.4 12.9v-58.2c0-18.2 14.1-33.8 32.3-34.3 9-0.2 17.3 3.1 23.4 8.7l45.7 45.7 8.8 8.8 6.9-6.9 47.6-47.6c6.2-5.6 14.4-8.9 23.4-8.7 18.2 0.5 32.4 16.1 32.4 34.3z"/><path class="b" d="m60.3 107.6l3.4 3.3 47.1-47.1-12.6-12.6z"/><path class="a" d="m221.1 100.6v64.4c0 18.4-14.9 33.3-33.4 33.3-9.2 0-17.5-3.7-23.5-9.8-6.1-6-9.8-14.3-9.8-23.5v-43l34.3-34.3c11.8-11.8 32.3-3.8 32.4 12.9z"/></svg>